<svg width="64" height="64" viewBox="0 0 64 64" fill="none" xmlns="http://www.w3.org/2000/svg">
<path fill-rule="evenodd" clip-rule="evenodd" d="M30.8413 25.0326C27.6771 25.1873 24.9612 25.6181 22.4778 26.3593C21.2014 26.7403 19.6721 27.2858 18.7276 27.6971C18.1177 27.9627 16.8163 28.6168 16.217 28.959C14.3205 30.0418 12.6277 31.3597 11.164 32.8927C10.8589 33.2123 10.5758 33.521 10.5349 33.5789L10.4605 33.6841L10.5693 33.5979C11.7972 32.6243 13.4836 31.5411 14.8822 30.8275C17.1978 29.6459 20.1091 28.6638 22.6818 28.1964C23.3359 28.0776 24.5124 27.9078 25.1767 27.8363C27.2532 27.6127 30.0661 27.5891 32.3791 27.7756C34.3124 27.9315 37.0943 28.3268 38.7654 28.6831C39.4655 28.8323 41.5733 29.3405 42.2489 29.5229C43.6867 29.9112 45.7147 30.5615 46.8151 30.9872C47.2207 31.1441 47.5808 31.2748 47.6153 31.2775C47.6738 31.2822 47.6794 31.2578 47.6968 30.9239C47.7218 30.4431 47.8009 30.2234 48.1096 29.7779C48.433 29.3113 49.0085 28.8395 49.8263 28.3705L50.1542 28.1824L50.0616 28.1467C50.0107 28.1269 49.5453 27.9711 49.0275 27.8004C46.8735 27.0901 44.2456 26.4163 41.6997 25.9217C39.8719 25.5666 38.507 25.365 36.7099 25.1848C35.0913 25.0225 32.4487 24.954 30.8413 25.0326ZM60.0271 29.0715C60.0271 29.1121 59.8563 29.7741 59.7885 29.996C59.7731 30.0464 59.8104 30.0506 60.2749 30.0506H60.7779L60.8089 29.9336C60.8727 29.6926 61 29.1176 61 29.0704C61 29.0279 60.935 29.0213 60.5136 29.0213C60.0873 29.0213 60.0271 29.0275 60.0271 29.0715ZM58.5996 30.0896C58.5821 30.1407 58.3639 31.1255 58.3639 31.1535C58.3639 31.1653 58.5792 31.1711 58.8423 31.1664L59.3208 31.1578L59.3625 31.033C59.4249 30.8459 59.5517 30.3668 59.5832 30.1987L59.6111 30.0506H59.112C58.7408 30.0506 58.6095 30.0605 58.5996 30.0896ZM57.1857 30.3551C57.1563 30.3757 56.9203 31.2646 56.9203 31.3548C56.9203 31.3953 57.465 31.4067 57.7537 31.3722L57.9123 31.3532L58.0131 30.8813C58.0686 30.6216 58.1137 30.3917 58.1134 30.3703C58.113 30.3409 58.0024 30.3314 57.6656 30.3317C57.4196 30.332 57.2036 30.3425 57.1857 30.3551ZM31.4837 31.1656C31.3207 31.41 30.1681 32.9248 29.8522 33.3098C29.3146 33.9651 26.7721 37.241 26.2695 37.9258C25.9585 38.3497 25.5374 38.9547 25.5378 38.9773C25.5381 38.9974 27.2942 39.0054 27.478 38.9861L27.6766 38.9652L27.8858 38.6794C28.0009 38.5222 28.3345 38.0779 28.6272 37.6919C29.2786 36.8327 29.4752 36.5794 30.8867 34.7806C31.3019 34.2515 31.7325 33.7001 31.8436 33.5552C31.9765 33.3819 32.053 33.3055 32.0671 33.3319C32.0789 33.3541 32.0982 33.4634 32.11 33.5749C32.1218 33.6864 32.1738 34.0513 32.2257 34.3858C32.2775 34.7204 32.4464 35.8712 32.6012 36.9434C32.7559 38.0155 32.8904 38.9181 32.9002 38.9492C32.917 39.0024 32.9771 39.0051 33.964 38.9959C34.5393 38.9906 35.0165 38.9792 35.0245 38.9706C35.0325 38.9621 35.0194 38.8147 34.9954 38.6432C34.9714 38.4716 34.8887 37.8751 34.8116 37.3176C34.7344 36.7601 34.5728 35.6233 34.4524 34.7913C34.332 33.9593 34.169 32.8155 34.0902 32.2494C34.0113 31.6833 33.9388 31.1675 33.9291 31.1032L33.9113 30.9862H32.7573H31.6034L31.4837 31.1656ZM38.8134 31.3052C38.7592 31.4815 38.6168 31.9244 38.4969 32.2896C38.3771 32.6547 38.279 32.9635 38.279 32.9757C38.279 32.988 39.4997 32.9936 40.9918 32.9884C43.9801 32.9779 43.8394 32.9693 43.943 33.1684C44.0468 33.368 43.9538 33.934 43.7522 34.3294C43.6376 34.5543 43.4163 34.7765 43.2106 34.8731L43.0346 34.9559L40.3195 34.9499L37.6043 34.9439L37.5134 35.2809C37.4634 35.4662 37.3057 35.9757 37.1628 36.4131C36.9439 37.0835 36.5207 38.4111 36.3824 38.8615L36.3441 38.9862L37.2566 38.9932C37.7585 38.997 38.22 38.9926 38.2822 38.9834L38.3952 38.9667L38.5227 38.571C38.5929 38.3534 38.7333 37.9157 38.8347 37.5983L39.0191 37.0213L40.7207 37.0132C42.6016 37.0044 42.5828 37.0026 42.7031 37.1988C42.7489 37.2736 42.7613 37.3321 42.7479 37.4112C42.7273 37.5325 42.4577 38.4507 42.3591 38.7356C42.3244 38.8359 42.296 38.9334 42.296 38.9521C42.296 38.9972 44.2562 38.9999 44.3013 38.9549C44.3441 38.9121 44.8588 37.1801 44.902 36.9337C44.963 36.5855 44.8464 36.2259 44.579 35.9381C44.5316 35.8869 44.4932 35.8361 44.4937 35.825C44.4943 35.814 44.6156 35.7137 44.7633 35.6022C45.387 35.1315 45.4917 34.9531 45.9353 33.6061C46.3382 32.3824 46.3878 32.1913 46.3659 31.9435C46.3333 31.5732 46.0636 31.2224 45.6994 31.0766L45.5127 31.0018L42.2123 30.9933L38.9119 30.9849L38.8134 31.3052ZM49.7199 31.0342C49.1232 31.1337 48.5055 31.4571 48.0528 31.907C47.53 32.4266 47.3509 32.7868 46.9057 34.2143C46.2477 36.3243 45.9988 37.2431 45.9996 37.5599C46.0008 38.0133 46.1432 38.4018 46.3985 38.6484C46.5962 38.8393 46.8001 38.9348 47.09 38.9722C47.2434 38.9919 48.6154 39.0003 50.8148 38.9948L54.2968 38.9862L54.4498 38.5028C54.5339 38.2369 54.6652 37.8221 54.7416 37.5811C54.8179 37.34 54.8804 37.133 54.8804 37.121C54.8804 37.1091 53.5282 37.0992 51.8755 37.099L48.8706 37.0987L48.7112 37.0249C48.4143 36.8875 48.3243 36.683 48.3835 36.2804C48.4503 35.8263 48.9116 34.3727 49.1381 33.9024C49.2732 33.622 49.5173 33.3313 49.7129 33.2179C49.7847 33.1763 49.9353 33.128 50.0475 33.1106C50.1687 33.0918 51.442 33.0723 53.1857 33.0626L56.12 33.0463L56.1628 32.9442C56.2139 32.8225 56.4961 31.9058 56.648 31.3683L56.756 30.9862L53.3625 30.9895C50.6933 30.9919 49.9158 31.0015 49.7199 31.0342ZM58.3536 31.6646C58.346 31.6775 58.3296 31.7512 58.3172 31.8283C58.3048 31.9055 58.2539 32.1361 58.2041 32.3407C58.1543 32.5453 58.1183 32.7175 58.1241 32.7233C58.1509 32.7499 58.8345 32.7652 58.9595 32.7419L59.1 32.7157L59.2008 32.2954C59.2562 32.0643 59.3106 31.8225 59.3218 31.7582L59.3422 31.6412H58.8549C58.5869 31.6412 58.3613 31.6517 58.3536 31.6646ZM57.0614 31.9155L56.9043 31.9246L56.7827 32.4301C56.7158 32.7081 56.6544 32.9531 56.6461 32.9745C56.6345 33.0047 56.7412 33.0135 57.1171 33.0135C57.469 33.0135 57.6112 33.0028 57.6327 32.9745C57.6491 32.9531 57.7096 32.725 57.7671 32.4677C57.8247 32.2104 57.8773 31.9788 57.884 31.9531C57.8942 31.9136 57.8429 31.9063 57.5573 31.9063C57.3709 31.9063 57.1477 31.9104 57.0614 31.9155ZM16.4674 33.7549L15.8233 33.7633L15.615 34.3863C15.5004 34.729 15.4172 35.0158 15.4301 35.0238C15.4431 35.0317 16.5219 35.0371 17.8275 35.0357C19.5493 35.0339 20.2088 35.0235 20.2286 34.998C20.2499 34.9707 20.4708 34.3029 20.6221 33.8089C20.6411 33.747 20.6266 33.7465 18.8763 33.7465C17.9056 33.7465 16.8216 33.7502 16.4674 33.7549ZM3.46758 34.3935C3.35121 34.7418 3.256 35.0335 3.256 35.0416C3.256 35.0498 4.13166 35.0526 5.20191 35.0479C7.36869 35.0385 7.29685 35.032 7.36715 35.2436C7.41385 35.3843 7.39389 35.5004 7.21962 36.1012C6.98048 36.9257 6.8226 37.2976 6.64124 37.4637C6.47642 37.6146 6.49804 37.6131 4.39964 37.6231L2.42075 37.6325L2.21001 38.2938C2.09412 38.6575 1.99959 38.9644 2 38.9759C2.00038 38.9873 3.04222 38.9939 4.31516 38.9904C6.87177 38.9834 6.76454 38.9913 7.18689 38.7795C7.44234 38.6514 7.79744 38.3001 7.9246 38.0497C7.9771 37.9462 8.06306 37.7287 8.11563 37.5662C8.36138 36.8066 8.8486 35.1823 8.89275 34.9754C9.00548 34.4468 8.85494 34.0932 8.41844 33.8611L8.26152 33.7777L5.97034 33.7689L3.67916 33.7602L3.46758 34.3935ZM12.1353 34.1285C11.9924 34.3301 11.69 34.7336 11.4632 35.0252C10.128 36.742 8.50204 38.9243 8.53455 38.9559C8.53973 38.9609 8.83193 38.9698 9.18386 38.9756L9.82375 38.9862L9.88052 38.9083C10.1477 38.541 10.8302 37.6373 11.0164 37.4042C11.1434 37.2451 11.3861 36.9324 11.5558 36.7094C12.2279 35.8262 12.6499 35.2903 12.6732 35.2903C12.6866 35.2903 12.7071 35.371 12.7187 35.4697C12.7302 35.5683 12.7799 35.9227 12.8291 36.2572C12.9442 37.0405 13.0626 37.8852 13.1263 38.3781C13.154 38.5925 13.1845 38.8135 13.194 38.8693L13.2113 38.9706H13.8825H14.5537L14.5535 38.9005C14.5529 38.7432 14.3771 37.4424 14.0329 35.0486L13.848 33.7621H13.1215H12.395L12.1353 34.1285ZM22.5811 33.9258C22.5208 34.0159 22.2478 34.3773 21.9745 34.7289C21.7012 35.0806 21.343 35.5437 21.1786 35.7582C21.0143 35.9726 20.7933 36.2533 20.6876 36.382C20.1992 36.9766 18.7904 38.8864 18.7904 38.9539C18.7904 38.9631 19.1076 38.9706 19.4954 38.9706C20.1946 38.9706 20.2007 38.9701 20.2373 38.9005C20.3279 38.7285 20.541 38.4318 21.1274 37.661C21.4732 37.2066 21.8267 36.7413 21.913 36.6271C22.1656 36.2926 22.7904 35.5039 22.91 35.3683L23.0202 35.2435L23.0416 35.4619C23.0644 35.6935 23.1186 36.1286 23.2942 37.4892C23.4728 38.8733 23.4861 38.9697 23.5001 38.9781C23.5074 38.9826 23.8178 38.9822 24.1898 38.9773L24.8662 38.9683L24.8391 38.7122C24.7904 38.2519 24.3037 34.7286 24.1844 33.9726L24.1511 33.7621H23.4209H22.6907L22.5811 33.9258ZM2.85813 36.304L2.63374 36.9745H3.29968H3.96562L4.16368 36.343C4.2726 35.9956 4.36832 35.6939 4.37636 35.6724C4.38778 35.642 4.24703 35.6334 3.73675 35.6334H3.08248L2.85813 36.304ZM17.0159 35.6802C16.8821 36.1458 16.5435 37.276 16.4178 37.6763C16.3263 37.9679 16.2097 38.3539 16.1587 38.534C16.1076 38.7141 16.0559 38.8863 16.0437 38.9167C16.0228 38.9686 16.0604 38.9714 16.6737 38.9635L17.3259 38.9551L17.3654 38.8303C17.6145 38.0436 18.2863 35.7557 18.2878 35.6892C18.2886 35.6534 17.0262 35.6444 17.0159 35.6802ZM29.8138 37.1837C29.759 37.1942 29.7321 37.2363 29.692 37.3743C29.6636 37.4718 29.5316 37.8252 29.3985 38.1597C29.179 38.7115 29.1207 38.8749 29.1166 38.949C29.1146 38.9866 31.1502 38.988 31.1881 38.9504C31.2175 38.9211 31.7828 37.2465 31.7828 37.1886C31.7828 37.1621 29.9503 37.1575 29.8138 37.1837Z" fill="#00001E"/>
</svg>
